<svg xmlns="http://www.w3.org/2000/svg" width="640" height="360" viewBox="0 0 640 360">
  <defs>
    <linearGradient id="g" x1="0" y1="0" x2="1" y2="1">
      <stop offset="0%" stop-color="#f2f7ff"/>
      <stop offset="100%" stop-color="#ffffff"/>
    </linearGradient>
  </defs>
  <rect width="640" height="360" rx="28" fill="url(#g)"/>
  <rect x="48" y="54" width="260" height="206" rx="18" fill="#ffffff" stroke="#e6efff"/>
  <rect x="86" y="90" width="72" height="130" rx="10" fill="#eef4ff"/>
  <rect x="168" y="90" width="72" height="130" rx="10" fill="#e8f0ff"/>
  <rect x="250" y="90" width="40" height="130" rx="10" fill="#f7faff"/>
  <rect x="340" y="80" width="252" height="24" rx="12" fill="#1f5de6" opacity="0.12"/>
  <rect x="340" y="120" width="220" height="16" rx="8" fill="#dbe7ff"/>
  <rect x="340" y="148" width="200" height="16" rx="8" fill="#e6efff"/>
  <rect x="340" y="190" width="180" height="14" rx="7" fill="#eef4ff"/>
  <rect x="340" y="212" width="160" height="14" rx="7" fill="#eef4ff"/>
  <rect x="340" y="234" width="140" height="14" rx="7" fill="#eef4ff"/>
  <rect x="48" y="280" width="544" height="8" rx="4" fill="#1f5de6" opacity="0.18"/>
  <text x="340" y="110" font-family="Inter, system-ui, Arial" font-size="22" font-weight="700" fill="#0f172a">Kitchen & Bathroom Fixes</text>
  <text x="340" y="168" font-family="Inter, system-ui, Arial" font-size="12" fill="#64748b">Demo project cover</text>
</svg>